<?xml version="1.0" standalone="no"?>
<!DOCTYPE svg PUBLIC "-//W3C//DTD SVG 20010904//EN"
 "http://www.w3.org/TR/2001/REC-SVG-20010904/DTD/svg10.dtd">
<svg version="1.0" xmlns="http://www.w3.org/2000/svg"
 width="700.000000pt" height="700.000000pt" viewBox="0 0 700.000000 700.000000"
 preserveAspectRatio="xMidYMid meet">
<metadata>
Created by potrace 1.11, written by Peter Selinger 2001-2013
</metadata>
<g transform="translate(0.000000,700.000000) scale(0.100000,-0.100000)"
fill="#000000" stroke="none">
<path d="M203 6976 c-72 -34 -137 -97 -173 -169 l-30 -60 0 -3247 0 -3247 30
-59 c36 -72 87 -123 164 -163 l58 -31 3247 0 3246 0 51 24 c70 32 147 109 178
176 l26 55 0 3246 0 3246 -30 60 c-36 72 -101 135 -173 169 l-52 24 -3245 0
-3245 0 -52 -24z"/>
</g>
</svg>
