<?xml version="1.0" standalone="no"?>
<!DOCTYPE svg PUBLIC "-//W3C//DTD SVG 20010904//EN"
 "http://www.w3.org/TR/2001/REC-SVG-20010904/DTD/svg10.dtd">
<svg version="1.0" xmlns="http://www.w3.org/2000/svg"
 width="260.000000pt" height="260.000000pt" viewBox="0 0 260.000000 260.000000"
 preserveAspectRatio="xMidYMid meet">
<metadata>
Created by potrace 1.11, written by Peter Selinger 2001-2013
</metadata>
<g transform="translate(0.000000,260.000000) scale(0.100000,-0.100000)"
fill="#000000" stroke="none">
<path d="M1382 2550 c-17 -19 -52 -135 -52 -175 0 -31 -18 -5 -46 65 -25 65
-30 70 -62 76 -29 6 -39 3 -54 -16 -24 -30 -23 -49 11 -122 32 -72 66 -169 63
-181 -1 -5 2 -6 8 -2 5 3 10 1 10 -4 0 -18 58 -12 77 8 21 22 89 27 96 7 5
-11 24 -13 76 -8 8 1 12 5 8 8 -7 7 0 16 82 100 l64 66 69 -7 c61 -5 72 -4 87
12 28 31 16 86 -22 98 -119 38 -184 20 -282 -79 -35 -35 -66 -62 -68 -59 -3 2
-1 20 5 40 17 64 20 77 23 118 5 68 -51 100 -93 55z"/>
<path d="M1270 2128 c-25 -5 -49 -10 -55 -11 -51 -12 -135 -66 -189 -119 -60
-61 -97 -131 -112 -215 -3 -14 -9 -34 -15 -44 -5 -10 -8 -22 -8 -26 1 -4 0
-15 -3 -23 -7 -18 -25 -92 -33 -135 -3 -16 -8 -41 -11 -55 -3 -14 -7 -38 -9
-55 -2 -16 -6 -45 -9 -62 -3 -18 -8 -45 -11 -60 -3 -16 -7 -39 -10 -53 -5 -23
-8 -40 -20 -120 -4 -25 -12 -87 -20 -149 -5 -43 -8 -45 -37 -30 -42 24 -87 36
-132 37 -24 1 -48 2 -52 3 -5 1 -11 0 -14 -1 -3 -1 -18 -4 -34 -6 -29 -5 -84
-38 -98 -59 -5 -6 -8 -6 -8 0 -1 25 -45 -64 -61 -123 -15 -56 -18 -95 -14
-237 2 -93 5 -177 7 -185 15 -60 82 -125 165 -162 69 -31 182 -20 304 30 83
34 106 53 157 130 65 98 77 175 31 201 -44 25 -73 9 -92 -51 -33 -102 -108
-176 -184 -181 -13 -1 -23 -5 -23 -8 0 -3 -6 -6 -12 -7 -7 0 -34 -4 -60 -7
-54 -7 -109 13 -145 53 -27 29 -25 15 -29 202 -2 117 1 155 15 196 23 69 41
84 104 91 45 5 64 1 115 -22 34 -15 62 -33 62 -40 0 -21 44 -50 70 -47 56 8
73 49 85 202 6 68 12 117 20 160 2 14 7 42 10 64 3 21 8 42 11 47 3 5 7 32 10
61 3 28 7 55 9 58 2 4 7 29 11 56 8 62 11 66 35 54 11 -6 24 -8 29 -5 5 3 11
1 15 -5 4 -6 10 -8 14 -6 4 3 25 1 46 -5 47 -13 259 -19 300 -8 16 4 48 10 70
13 22 2 52 9 67 14 34 14 36 7 33 -88 -3 -78 -9 -124 -31 -220 -3 -14 -7 -38
-9 -55 -2 -16 -11 -55 -19 -85 -8 -30 -18 -71 -21 -90 -3 -19 -12 -56 -19 -81
-10 -33 -11 -51 -3 -65 32 -57 88 -50 120 15 11 24 18 26 70 26 42 1 65 -4 80
-17 12 -10 37 -30 55 -45 33 -28 78 -111 84 -155 2 -13 6 -27 10 -33 7 -12 4
-213 -4 -235 -19 -56 -30 -69 -88 -98 -30 -16 -53 -20 -62 -12 -2 1 -10 3 -18
5 -8 2 -42 11 -75 20 -33 9 -71 18 -85 21 -83 16 -217 87 -250 134 -21 30 -71
136 -88 188 -21 62 -76 88 -111 53 -30 -30 -18 -83 54 -230 44 -89 95 -146
157 -173 15 -7 28 -16 28 -20 0 -5 7 -8 15 -8 8 0 15 -5 15 -11 0 -5 5 -7 10
-4 6 3 10 2 10 -3 0 -9 76 -33 145 -47 39 -8 40 -8 110 -30 103 -32 154 -26
235 28 54 37 88 74 96 105 4 12 10 22 14 22 5 0 7 8 6 18 -2 9 1 31 6 47 10
30 12 180 4 223 -29 144 -60 208 -138 284 -80 77 -117 94 -212 99 l-43 3 13
50 c8 28 17 69 19 90 3 21 7 42 9 45 3 4 7 27 11 51 4 25 10 63 14 85 4 22 8
140 9 262 1 236 -8 302 -58 410 -11 24 -20 47 -20 53 0 5 -4 10 -10 10 -5 0
-10 6 -10 13 0 13 -72 62 -125 85 -37 17 -134 21 -195 10z m-15 -165 c-7 -27
-16 -64 -19 -84 -3 -20 -8 -43 -12 -52 -3 -10 -3 -33 0 -53 8 -41 41 -59 80
-44 28 10 30 17 51 125 13 73 38 155 46 155 14 0 63 -24 80 -40 18 -17 53 -80
44 -80 -3 0 -1 -9 5 -21 22 -41 39 -134 37 -204 -2 -50 -5 -59 -22 -61 -11 -1
-31 -5 -45 -9 -79 -21 -173 -31 -263 -28 -123 4 -127 5 -127 12 0 3 -17 7 -37
9 -20 1 -42 7 -50 13 -7 6 -13 8 -13 3 0 -4 -5 -3 -12 4 -8 8 -8 15 0 25 7 8
9 16 6 19 -3 3 2 22 10 42 8 19 17 50 20 68 9 60 45 126 89 163 44 38 117 81
117 68 0 -4 5 -2 12 5 18 18 18 16 3 -35z"/>
</g>
</svg>
